{
	"scenes": [
		{
			"nodes": [ 0 ]
		}
	],
	"nodes": [
		{
			"mesh": 0,
			"rotation": [ -0.70710678118654757, -0, -0, 0.70710678118654757 ]
		}
	],
	"meshes": [
		{
			"primitives": [
				{
					"attributes": {
						"POSITION": 1,
						"NORMAL": 2,
						"COLOR_0": 3
					},
					"indices": 0,
					"material": 0
				}
			]
		}
	],
	"buffers": [
		{
			"uri": "Cluster0.b3dm.bin",
			"byteLength": 1152
		}
	],
	"bufferViews": [
		{
			"buffer": 0,
			"byteOffset": 0,
			"byteLength": 144,
			"target": 34963
		},
		{
			"buffer": 0,
			"byteOffset": 144,
			"byteLength": 432,
			"target": 34962
		},
		{
			"buffer": 0,
			"byteOffset": 576,
			"byteLength": 432,
			"target": 34962
		},
		{
			"buffer": 0,
			"byteOffset": 1008,
			"byteLength": 144,
			"target": 34962
		}
	],
	"accessors": [
		{
			"bufferView": 0,
			"byteOffset": 0,
			"componentType": 5125,
			"count": 36,
			"type": "SCALAR",
			"min": [ 0 ],
			"max": [ 35 ]
		},
		{
			"bufferView": 1,
			"byteOffset": 0,
			"componentType": 5126,
			"count": 36,
			"type": "VEC3",
			"min": [ 199.999969, -100.000046, -100.000015 ],
			"max": [ 400.000061, 100.000023, 100.000015 ]
		},
		{
			"bufferView": 2,
			"byteOffset": 0,
			"componentType": 5126,
			"count": 36,
			"type": "VEC3",
			"min": [ -1, -1, -1 ],
			"max": [ 1, 1, 1 ]
		},
		{
			"bufferView": 3,
			"byteOffset": 0,
			"componentType": 5121,
			"count": 36,
			"type": "VEC4",
			"normalized": true,
			"min": [ 255, 255, 0, 119 ],
			"max": [ 255, 255, 0, 119 ]
		}
	],
	"materials": [
		{
			"alphaMode": "BLEND",
			"doubleSided": true
		}
	],
	"asset": {
		"version": "2.0"
	}
}
